<?xml version="1.0" encoding="UTF-8"?>
<svg id="Layer_2" data-name="Layer 2" xmlns="http://www.w3.org/2000/svg" xmlns:xlink="http://www.w3.org/1999/xlink" viewBox="0 0 63.93 20.35">
  <defs>
    <style>
      .cls-1 {
        fill: url(#linear-gradient-2);
      }

      .cls-2 {
        fill: #fff;
      }

      .cls-3 {
        fill: url(#linear-gradient-15);
      }

      .cls-4 {
        font-size: 8.33px;
      }

      .cls-5 {
        fill: url(#linear-gradient-14);
      }

      .cls-6 {
        font-family: Raleway-Regular, Raleway;
      }

      .cls-7 {
        fill: url(#linear-gradient-6);
      }

      .cls-8 {
        fill: url(#linear-gradient-11);
      }

      .cls-9 {
        letter-spacing: 0em;
      }

      .cls-10 {
        fill: url(#linear-gradient-10);
      }

      .cls-11 {
        letter-spacing: -.04em;
      }

      .cls-12 {
        letter-spacing: -.07em;
      }

      .cls-13 {
        fill: url(#linear-gradient-5);
      }

      .cls-14 {
        fill: url(#linear-gradient-7);
      }

      .cls-15 {
        fill: url(#linear-gradient-9);
      }

      .cls-16 {
        font-family: Raleway-Black, Raleway;
        font-weight: 800;
      }

      .cls-17 {
        fill: url(#linear-gradient-3);
      }

      .cls-18 {
        fill: url(#linear-gradient);
      }

      .cls-19 {
        letter-spacing: 0em;
      }

      .cls-20 {
        letter-spacing: -.03em;
      }

      .cls-21 {
        fill: url(#linear-gradient-4);
      }

      .cls-22 {
        fill: url(#linear-gradient-8);
      }

      .cls-23 {
        fill: url(#linear-gradient-12);
      }

      .cls-24 {
        fill: url(#linear-gradient-13);
      }
    </style>
    <linearGradient id="linear-gradient" x1="4565.51" y1="7869.63" x2="4545.17" y2="7869.46" gradientTransform="translate(-4545.17 7879.72) scale(1 -1)" gradientUnits="userSpaceOnUse">
      <stop offset="0" stop-color="#111331"/>
      <stop offset=".44" stop-color="#2d317b"/>
      <stop offset="1" stop-color="#4c85c5"/>
    </linearGradient>
    <linearGradient id="linear-gradient-2" x1="24.54" y1="10.37" x2="63.93" y2="10.37" gradientTransform="matrix(1,0,0,1,0,0)" xlink:href="#linear-gradient"/>
    <linearGradient id="linear-gradient-3" x1="24.54" y1="10.37" x2="63.93" y2="10.37" gradientTransform="matrix(1,0,0,1,0,0)" xlink:href="#linear-gradient"/>
    <linearGradient id="linear-gradient-4" x1="24.54" y1="10.37" x2="63.93" y2="10.37" gradientTransform="matrix(1,0,0,1,0,0)" xlink:href="#linear-gradient"/>
    <linearGradient id="linear-gradient-5" x1="24.54" y1="10.37" x2="63.93" y2="10.37" gradientTransform="matrix(1,0,0,1,0,0)" xlink:href="#linear-gradient"/>
    <linearGradient id="linear-gradient-6" x1="24.54" y1="10.37" x2="63.93" y2="10.37" gradientTransform="matrix(1,0,0,1,0,0)" xlink:href="#linear-gradient"/>
    <linearGradient id="linear-gradient-7" x1="24.54" y1="10.37" x2="63.93" y2="10.37" gradientTransform="matrix(1,0,0,1,0,0)" xlink:href="#linear-gradient"/>
    <linearGradient id="linear-gradient-8" x1="24.54" y1="10.37" x2="63.93" y2="10.37" gradientTransform="matrix(1,0,0,1,0,0)" xlink:href="#linear-gradient"/>
    <linearGradient id="linear-gradient-9" x1="24.54" y1="10.37" x2="63.93" y2="10.37" gradientTransform="matrix(1,0,0,1,0,0)" xlink:href="#linear-gradient"/>
    <linearGradient id="linear-gradient-10" x1="24.54" y1="10.37" x2="63.93" y2="10.37" gradientTransform="matrix(1,0,0,1,0,0)" xlink:href="#linear-gradient"/>
    <linearGradient id="linear-gradient-11" x1="24.54" y1="10.37" x2="63.93" y2="10.37" gradientTransform="matrix(1,0,0,1,0,0)" xlink:href="#linear-gradient"/>
    <linearGradient id="linear-gradient-12" x1="24.54" y1="10.37" x2="63.93" y2="10.37" gradientTransform="matrix(1,0,0,1,0,0)" xlink:href="#linear-gradient"/>
    <linearGradient id="linear-gradient-13" x1="24.54" y1="10.37" x2="63.93" y2="10.37" gradientTransform="matrix(1,0,0,1,0,0)" xlink:href="#linear-gradient"/>
    <linearGradient id="linear-gradient-14" x1="24.54" y1="10.37" x2="63.93" y2="10.37" gradientTransform="matrix(1,0,0,1,0,0)" xlink:href="#linear-gradient"/>
    <linearGradient id="linear-gradient-15" x1="24.54" y1="10.37" x2="63.93" y2="10.37" gradientTransform="matrix(1,0,0,1,0,0)" xlink:href="#linear-gradient"/>
  </defs>
  <g id="Back">
    <g>
      <rect class="cls-18" width="20.35" height="20.35" rx="2" ry="2"/>
      <g>
        <path class="cls-2" d="m17.64,9.93h-3.75s-.09,0-.13,0c-.29,0-.59,0-.88,0-.15,0-.28-.03-.31-.22,0-.03-.02-.06-.04-.08-.03-.05-.07-.09-.13-.11-.05-.02-.11-.03-.16-.01-.14.03-.22.11-.22.26,0,.05,0,.11,0,.16h-.16c-.06-.21-.23-.28-.46-.2-.13.05-.25.11-.38.17-.02,0-.04.02-.06.02h-.46c-.27-.11-.55-.18-.82-.31-.31-.14-.59-.12-.89.06-.69.43-1.4.83-2.1,1.25-.04.02-.08.05-.12.08,0,0-.01.01-.01.02,0,0,0,.02,0,.03,0,0,.01.01.02.02,0,0,.02,0,.02,0,.1,0,.2,0,.3,0,.55-.02,1.1-.05,1.65-.06.14,0,.25-.02.34-.18.11-.19.35-.2.51-.05.07.07.11.17.11.27h0s0,.01,0,.01c0,.03,0,.06,0,.09-.01.07-.05.14-.1.19-.03.03-.08.06-.12.08s-.1.02-.14.02c-.05,0-.1-.02-.14-.05-.04-.03-.08-.06-.1-.1-.08-.12-.16-.13-.28-.13-.53.03-1.07.04-1.6.06-.08,0-.16,0-.24.01h-.07s-.13.01-.13.01c0,0-.02,0-.02.01,0,0-.01.01-.02.02,0,0,0,.02,0,.03,0,0,0,.02.01.02.21.11.41.21.62.31.18.09.36.17.55.26.38.19.76.38,1.14.58.31.16.59.16.89,0,.26-.14.54-.24.81-.37.08-.04.17-.06.25-.06.09,0,.17.02.26.05.13.05.26.11.39.14.24.07.4-.02.45-.23h2.34s.03,0,.04,0c.01,0,.02-.01.03-.02h.77c-.75,1.78-2.05,2.74-4.31,3.26,3.58,1.06,7.48-2,6.82-5.31Z"/>
        <path class="cls-2" d="m14.9,7.04l1.8-1.05C14.39,1.86,8.59,1.04,5.39,4.08c3.93-1.41,7.08-.41,9.51,2.96Z"/>
        <path class="cls-2" d="m4.75,10.66c-.58,2.24.53,4.95,2.48,6.03,2.29,1.28,5.78.81,7.49-.92-4.27,1.34-8.54-.38-9.97-5.11Z"/>
        <path class="cls-2" d="m9.54,4.39c-2.36-.57-5.06.58-6.21,2.64-1.24,2.21-.79,5.59.99,7.41-1.75-5.29,1.4-9.22,5.22-10.05Z"/>
      </g>
    </g>
    <g>
      <text class="cls-4" transform="translate(24.35 8.33)"><tspan class="cls-16"><tspan x="0" y="0">G</tspan><tspan class="cls-19" x="6.15" y="0">R</tspan><tspan class="cls-20" x="11.7" y="0">O</tspan><tspan x="17.83" y="0">WIF</tspan><tspan class="cls-11" x="33.96" y="0">Y</tspan></tspan><tspan class="cls-6"><tspan x="0" y="9.99">DIGI</tspan><tspan class="cls-12" x="16.05" y="9.99">T</tspan><tspan class="cls-9" x="20.56" y="9.99">A</tspan><tspan class="cls-20" x="26.19" y="9.99">L</tspan></tspan></text>
      <g>
        <path class="cls-1" d="m27.42,8.37c-.38,0-.75-.07-1.1-.2s-.65-.34-.92-.6-.48-.58-.63-.96-.23-.8-.23-1.29c0-.42.08-.8.23-1.16.16-.36.37-.67.65-.94.27-.27.6-.48.96-.63.37-.15.76-.23,1.19-.23.53,0,1.02.12,1.45.35s.75.55.97.95l-1.21.92c-.12-.23-.29-.42-.52-.56-.23-.14-.48-.21-.74-.21-.19,0-.37.04-.53.12-.16.08-.3.19-.42.33-.12.14-.21.3-.27.5-.06.19-.1.4-.1.63s.03.44.1.63c.07.19.16.35.28.49.12.14.26.24.43.32.17.08.35.11.56.11.26,0,.51-.06.75-.2s.46-.32.65-.55v1.58c-.44.41-.96.61-1.54.61Zm1.46-2.02h-1.09v-1.17h2.43v3.15h-1.34v-1.98Z"/>
        <path class="cls-17" d="m31.01,8.33V2.42h2.72c.29,0,.56.06.8.17.24.12.46.27.63.47s.31.42.41.66.15.49.15.74c0,.23-.03.45-.1.66-.07.21-.16.4-.29.58-.13.18-.28.33-.46.45l1.25,2.17h-1.78l-1.04-1.82h-.66v1.82h-1.62Zm1.62-3.23h1.02c.07,0,.13-.02.19-.08.06-.05.11-.12.15-.22.04-.09.06-.21.06-.34s-.02-.25-.07-.35c-.05-.09-.11-.16-.18-.21-.07-.05-.14-.08-.2-.08h-.98v1.27Z"/>
        <path class="cls-21" d="m39.23,8.37c-.45,0-.86-.08-1.22-.25-.37-.17-.68-.4-.95-.68-.26-.29-.47-.61-.61-.97s-.21-.73-.21-1.11.08-.77.23-1.12.36-.67.63-.95c.27-.28.59-.5.96-.66s.77-.24,1.21-.24.86.08,1.22.25c.37.17.68.4.94.69.26.29.46.61.6.97.14.36.21.73.21,1.1s-.07.76-.22,1.12c-.15.36-.36.67-.62.95-.27.28-.59.5-.95.67-.37.16-.77.25-1.22.25Zm-1.34-3c0,.2.03.39.08.58.06.19.14.35.25.5.11.15.25.26.42.35s.37.13.6.13.44-.04.61-.13.31-.21.42-.36c.11-.15.19-.32.24-.51.05-.19.08-.38.08-.57s-.03-.39-.08-.58c-.06-.18-.14-.35-.25-.5-.11-.15-.25-.26-.42-.35-.17-.08-.37-.12-.6-.12s-.43.04-.6.13-.31.21-.42.35c-.11.15-.19.31-.25.5-.05.19-.08.38-.08.57Z"/>
        <path class="cls-13" d="m44.55,2.42h1.49l.54,1.82.55-1.82h1.49l-1,2.82.42,1.21,1.27-4.03h1.77l-2.23,5.91h-1.41l-.87-2.12-.86,2.12h-1.41l-2.23-5.91h1.76l1.28,4.03.41-1.21-.98-2.82Z"/>
        <path class="cls-7" d="m51.49,8.33V2.42h1.62v5.91h-1.62Z"/>
        <path class="cls-14" d="m54.13,8.33V2.42h4.06v1.42h-2.43v.98h1.98v1.32h-1.98v2.2h-1.62Z"/>
        <path class="cls-22" d="m60.02,2.42l1.06,2.42,1.08-2.42h1.77l-2.04,3.96v1.96h-1.62v-1.97l-2.01-3.94h1.76Z"/>
        <path class="cls-15" d="m25.09,18.33v-5.91h2.01c.63,0,1.15.13,1.57.4s.73.62.95,1.07c.21.45.32.94.32,1.49,0,.6-.12,1.12-.35,1.57-.23.44-.56.79-.98,1.03-.42.25-.93.37-1.5.37h-2.01Zm4.26-2.96c0-.47-.09-.89-.26-1.26-.17-.37-.43-.65-.76-.86-.33-.21-.74-.31-1.22-.31h-1.42v4.88h1.42c.49,0,.9-.11,1.23-.33.33-.22.59-.51.76-.88.17-.37.26-.78.26-1.25Z"/>
        <path class="cls-10" d="m31.05,18.33v-5.91h.58v5.91h-.58Z"/>
        <path class="cls-8" d="m35.49,18.37c-.39,0-.76-.08-1.1-.25-.34-.17-.63-.4-.88-.69-.25-.29-.44-.61-.58-.97-.14-.35-.2-.72-.2-1.1,0-.4.07-.78.2-1.14.14-.36.33-.68.57-.95.24-.28.53-.5.87-.66.33-.16.7-.24,1.09-.24.58,0,1.06.12,1.42.36.37.24.64.55.83.93l-.45.3c-.19-.37-.44-.64-.76-.81-.32-.17-.67-.26-1.06-.26-.33,0-.62.07-.89.21-.26.14-.49.33-.68.56-.19.23-.33.5-.43.79s-.15.6-.15.92c0,.33.06.65.17.95.11.3.27.56.47.79.21.23.44.41.71.54.27.13.56.2.87.2.36,0,.7-.09,1.02-.27.32-.18.63-.46.92-.84v.62c-.56.68-1.22,1.02-1.99,1.02Zm1.9-2.5h-1.32v-.45h1.81v2.91h-.49v-2.46Z"/>
        <path class="cls-23" d="m39.08,18.33v-5.91h.58v5.91h-.58Z"/>
        <path class="cls-24" d="m45.34,12.93h-2.11v5.4h-.58v-5.4h-2.11v-.52h4.8v.52Z"/>
        <path class="cls-5" d="m47.49,12.41h.49l2.46,5.91h-.62l-.74-1.85h-2.7l-.74,1.85h-.62l2.47-5.91Zm1.41,3.61l-1.17-2.92-1.17,2.92h2.34Z"/>
        <path class="cls-3" d="m51.29,18.33v-5.91h.58v5.4h3.42v.52h-4Z"/>
      </g>
    </g>
  </g>
</svg>